<mxfile host="65bd71144e">
    <diagram name="Halaman-1" id="EO8M5acR98Tv6OP4zz49">
        <mxGraphModel dx="2310" dy="2497" grid="1" gridSize="10" guides="1" tooltips="1" connect="1" arrows="1" fold="1" page="1" pageScale="1" pageWidth="827" pageHeight="1169" math="0" shadow="0">
            <root>
                <mxCell id="0"/>
                <mxCell id="1" parent="0"/>
                <mxCell id="2" value="" style="group;fontSize=25;strokeWidth=2;" parent="1" vertex="1" connectable="0">
                    <mxGeometry x="250" y="-62.5" width="550" height="852.5" as="geometry"/>
                </mxCell>
                <mxCell id="wb8jJMgzwJ6dVFCxpj_n-7" style="edgeStyle=orthogonalEdgeStyle;rounded=0;orthogonalLoop=1;jettySize=auto;html=1;entryX=1;entryY=0.5;entryDx=0;entryDy=0;fontSize=25;strokeWidth=2;" parent="2" source="5ZPLBMI4b5httvobRTlc-1" target="95U1aUTwDA3ZDBjEYCyH-7" edge="1">
                    <mxGeometry relative="1" as="geometry"/>
                </mxCell>
                <mxCell id="5ZPLBMI4b5httvobRTlc-1" value="Start" style="ellipse;whiteSpace=wrap;html=1;fontSize=25;strokeWidth=2;" parent="2" vertex="1">
                    <mxGeometry x="307.65625" width="154.6875" height="99.84234234234235" as="geometry"/>
                </mxCell>
                <mxCell id="wb8jJMgzwJ6dVFCxpj_n-24" style="edgeStyle=orthogonalEdgeStyle;rounded=0;orthogonalLoop=1;jettySize=auto;html=1;entryX=0.5;entryY=0;entryDx=0;entryDy=0;fontSize=25;strokeWidth=2;" parent="2" source="5ZPLBMI4b5httvobRTlc-18" target="wb8jJMgzwJ6dVFCxpj_n-10" edge="1">
                    <mxGeometry relative="1" as="geometry"/>
                </mxCell>
                <mxCell id="5ZPLBMI4b5httvobRTlc-18" value="Classification" style="rounded=0;whiteSpace=wrap;html=1;fontSize=25;strokeWidth=2;" parent="2" vertex="1">
                    <mxGeometry y="602.8941441441442" width="206.25" height="92.16216216216218" as="geometry"/>
                </mxCell>
                <mxCell id="wb8jJMgzwJ6dVFCxpj_n-22" style="edgeStyle=orthogonalEdgeStyle;rounded=0;orthogonalLoop=1;jettySize=auto;html=1;entryX=0.5;entryY=0;entryDx=0;entryDy=0;fontSize=25;strokeWidth=2;" parent="2" source="5ZPLBMI4b5httvobRTlc-21" target="5ZPLBMI4b5httvobRTlc-18" edge="1">
                    <mxGeometry relative="1" as="geometry"/>
                </mxCell>
                <mxCell id="5ZPLBMI4b5httvobRTlc-21" value="Model Training and Validating" style="rounded=0;whiteSpace=wrap;html=1;fontSize=25;strokeWidth=2;" parent="2" vertex="1">
                    <mxGeometry y="387.8490990990992" width="206.25" height="92.16216216216218" as="geometry"/>
                </mxCell>
                <mxCell id="5ZPLBMI4b5httvobRTlc-25" value="End" style="ellipse;whiteSpace=wrap;html=1;fontSize=25;strokeWidth=2;" parent="2" vertex="1">
                    <mxGeometry x="307.65625" y="752.6576576576578" width="154.6875" height="99.84234234234235" as="geometry"/>
                </mxCell>
                <mxCell id="95U1aUTwDA3ZDBjEYCyH-7" value="Data Collection" style="rounded=0;whiteSpace=wrap;html=1;fontSize=25;strokeWidth=2;" parent="2" vertex="1">
                    <mxGeometry y="3.8400900900900905" width="206.25" height="92.16216216216218" as="geometry"/>
                </mxCell>
                <mxCell id="wb8jJMgzwJ6dVFCxpj_n-9" style="edgeStyle=orthogonalEdgeStyle;rounded=0;orthogonalLoop=1;jettySize=auto;html=1;entryX=0.5;entryY=0;entryDx=0;entryDy=0;fontSize=25;exitX=0.5;exitY=1;exitDx=0;exitDy=0;strokeWidth=2;" parent="2" source="95U1aUTwDA3ZDBjEYCyH-7" target="wb8jJMgzwJ6dVFCxpj_n-6" edge="1">
                    <mxGeometry relative="1" as="geometry">
                        <mxPoint x="486.40625" y="203.52477477477478" as="sourcePoint"/>
                    </mxGeometry>
                </mxCell>
                <mxCell id="wb8jJMgzwJ6dVFCxpj_n-16" style="edgeStyle=orthogonalEdgeStyle;rounded=0;orthogonalLoop=1;jettySize=auto;html=1;entryX=1;entryY=0.5;entryDx=0;entryDy=0;fontSize=25;exitX=1;exitY=0.5;exitDx=0;exitDy=0;strokeWidth=2;" parent="2" source="wb8jJMgzwJ6dVFCxpj_n-4" target="wb8jJMgzwJ6dVFCxpj_n-12" edge="1">
                    <mxGeometry relative="1" as="geometry">
                        <Array as="points">
                            <mxPoint x="550" y="188.16441441441444"/>
                            <mxPoint x="550" y="357.1283783783784"/>
                        </Array>
                    </mxGeometry>
                </mxCell>
                <mxCell id="wb8jJMgzwJ6dVFCxpj_n-17" style="edgeStyle=orthogonalEdgeStyle;rounded=0;orthogonalLoop=1;jettySize=auto;html=1;entryX=1;entryY=0.5;entryDx=0;entryDy=0;fontSize=25;exitX=1;exitY=0.5;exitDx=0;exitDy=0;strokeWidth=2;" parent="2" source="wb8jJMgzwJ6dVFCxpj_n-4" target="wb8jJMgzwJ6dVFCxpj_n-11" edge="1">
                    <mxGeometry relative="1" as="geometry">
                        <Array as="points">
                            <mxPoint x="550" y="188.16441441441444"/>
                            <mxPoint x="550" y="510.7319819819821"/>
                        </Array>
                    </mxGeometry>
                </mxCell>
                <mxCell id="wb8jJMgzwJ6dVFCxpj_n-18" style="edgeStyle=orthogonalEdgeStyle;rounded=0;orthogonalLoop=1;jettySize=auto;html=1;entryX=1;entryY=0.5;entryDx=0;entryDy=0;fontSize=25;strokeWidth=2;" parent="2" source="wb8jJMgzwJ6dVFCxpj_n-4" target="wb8jJMgzwJ6dVFCxpj_n-14" edge="1">
                    <mxGeometry relative="1" as="geometry">
                        <Array as="points">
                            <mxPoint x="550" y="188.16441441441444"/>
                            <mxPoint x="550" y="648.9752252252254"/>
                        </Array>
                    </mxGeometry>
                </mxCell>
                <mxCell id="wb8jJMgzwJ6dVFCxpj_n-4" value="Data Splitting" style="rounded=0;whiteSpace=wrap;html=1;fontSize=25;strokeWidth=2;" parent="2" vertex="1">
                    <mxGeometry x="281.875" y="142.08333333333334" width="206.25" height="92.16216216216218" as="geometry"/>
                </mxCell>
                <mxCell id="wb8jJMgzwJ6dVFCxpj_n-15" style="edgeStyle=orthogonalEdgeStyle;rounded=0;orthogonalLoop=1;jettySize=auto;html=1;entryX=0;entryY=0.5;entryDx=0;entryDy=0;fontSize=25;strokeWidth=2;" parent="2" source="wb8jJMgzwJ6dVFCxpj_n-6" target="wb8jJMgzwJ6dVFCxpj_n-4" edge="1">
                    <mxGeometry relative="1" as="geometry"/>
                </mxCell>
                <mxCell id="wb8jJMgzwJ6dVFCxpj_n-6" value="Preprocessing" style="rounded=0;whiteSpace=wrap;html=1;fontSize=25;strokeWidth=2;" parent="2" vertex="1">
                    <mxGeometry y="142.08333333333334" width="206.25" height="92.16216216216218" as="geometry"/>
                </mxCell>
                <mxCell id="wb8jJMgzwJ6dVFCxpj_n-28" style="edgeStyle=orthogonalEdgeStyle;rounded=0;orthogonalLoop=1;jettySize=auto;html=1;entryX=0;entryY=0.5;entryDx=0;entryDy=0;fontSize=25;strokeWidth=2;" parent="2" source="wb8jJMgzwJ6dVFCxpj_n-10" target="5ZPLBMI4b5httvobRTlc-25" edge="1">
                    <mxGeometry relative="1" as="geometry"/>
                </mxCell>
                <mxCell id="wb8jJMgzwJ6dVFCxpj_n-10" value="Evaluation" style="rounded=0;whiteSpace=wrap;html=1;fontSize=25;strokeWidth=2;" parent="2" vertex="1">
                    <mxGeometry y="756.4977477477479" width="206.25" height="92.16216216216218" as="geometry"/>
                </mxCell>
                <mxCell id="wb8jJMgzwJ6dVFCxpj_n-20" style="edgeStyle=orthogonalEdgeStyle;rounded=0;orthogonalLoop=1;jettySize=auto;html=1;entryX=1;entryY=0.5;entryDx=0;entryDy=0;fontSize=25;strokeWidth=2;" parent="2" source="wb8jJMgzwJ6dVFCxpj_n-11" target="5ZPLBMI4b5httvobRTlc-21" edge="1">
                    <mxGeometry relative="1" as="geometry"/>
                </mxCell>
                <mxCell id="wb8jJMgzwJ6dVFCxpj_n-11" value="Data Validation" style="rounded=0;whiteSpace=wrap;html=1;fontSize=25;strokeWidth=2;" parent="2" vertex="1">
                    <mxGeometry x="281.875" y="464.650900900901" width="206.25" height="92.16216216216218" as="geometry"/>
                </mxCell>
                <mxCell id="wb8jJMgzwJ6dVFCxpj_n-21" style="edgeStyle=orthogonalEdgeStyle;rounded=0;orthogonalLoop=1;jettySize=auto;html=1;entryX=1;entryY=0.5;entryDx=0;entryDy=0;fontSize=25;strokeWidth=2;" parent="2" source="wb8jJMgzwJ6dVFCxpj_n-12" target="5ZPLBMI4b5httvobRTlc-21" edge="1">
                    <mxGeometry relative="1" as="geometry"/>
                </mxCell>
                <mxCell id="wb8jJMgzwJ6dVFCxpj_n-12" value="Data Testing" style="rounded=0;whiteSpace=wrap;html=1;fontSize=25;strokeWidth=2;" parent="2" vertex="1">
                    <mxGeometry x="281.875" y="311.0472972972973" width="206.25" height="92.16216216216218" as="geometry"/>
                </mxCell>
                <mxCell id="wb8jJMgzwJ6dVFCxpj_n-23" style="edgeStyle=orthogonalEdgeStyle;rounded=0;orthogonalLoop=1;jettySize=auto;html=1;entryX=1;entryY=0.5;entryDx=0;entryDy=0;fontSize=25;strokeWidth=2;" parent="2" source="wb8jJMgzwJ6dVFCxpj_n-14" target="5ZPLBMI4b5httvobRTlc-18" edge="1">
                    <mxGeometry relative="1" as="geometry"/>
                </mxCell>
                <mxCell id="wb8jJMgzwJ6dVFCxpj_n-14" value="Data Training" style="rounded=0;whiteSpace=wrap;html=1;fontSize=25;strokeWidth=2;" parent="2" vertex="1">
                    <mxGeometry x="281.875" y="602.8941441441442" width="206.25" height="92.16216216216218" as="geometry"/>
                </mxCell>
                <mxCell id="37" value="" style="rounded=0;whiteSpace=wrap;html=1;fontSize=25;strokeWidth=2;" parent="1" vertex="1">
                    <mxGeometry x="110" y="910" width="1130" height="170" as="geometry"/>
                </mxCell>
                <mxCell id="28" style="edgeStyle=none;html=1;entryX=0;entryY=0.5;entryDx=0;entryDy=0;fontSize=25;strokeWidth=2;" parent="1" source="27" target="29" edge="1">
                    <mxGeometry relative="1" as="geometry">
                        <mxPoint x="372.72628205128206" y="1018.1818181818182" as="targetPoint"/>
                    </mxGeometry>
                </mxCell>
                <mxCell id="27" value="Punctual Removal" style="rounded=0;whiteSpace=wrap;html=1;fontSize=25;strokeWidth=2;" parent="1" vertex="1">
                    <mxGeometry x="130.0044871794872" y="971.8181818181818" width="185.45384615384614" height="92.72727272727273" as="geometry"/>
                </mxCell>
                <mxCell id="34" style="edgeStyle=none;html=1;entryX=0;entryY=0.5;entryDx=0;entryDy=0;fontSize=25;strokeWidth=2;" parent="1" source="29" target="31" edge="1">
                    <mxGeometry relative="1" as="geometry"/>
                </mxCell>
                <mxCell id="29" value="&lt;span style=&quot;color: rgb(0, 0, 0);&quot;&gt;Case Folding&lt;/span&gt;" style="rounded=0;whiteSpace=wrap;html=1;fontSize=25;strokeWidth=2;" parent="1" vertex="1">
                    <mxGeometry x="349.99628205128204" y="971.8181818181818" width="185.45384615384614" height="92.72727272727273" as="geometry"/>
                </mxCell>
                <mxCell id="35" style="edgeStyle=none;html=1;entryX=0;entryY=0.5;entryDx=0;entryDy=0;fontSize=25;strokeWidth=2;" parent="1" source="31" target="32" edge="1">
                    <mxGeometry relative="1" as="geometry"/>
                </mxCell>
                <mxCell id="31" value="Stopword Removal" style="rounded=0;whiteSpace=wrap;html=1;fontSize=25;strokeWidth=2;" parent="1" vertex="1">
                    <mxGeometry x="573.6380769230769" y="971.8181818181818" width="185.45384615384614" height="92.72727272727273" as="geometry"/>
                </mxCell>
                <mxCell id="36" style="edgeStyle=none;html=1;entryX=0;entryY=0.5;entryDx=0;entryDy=0;fontSize=25;strokeWidth=2;" parent="1" source="32" target="33" edge="1">
                    <mxGeometry relative="1" as="geometry"/>
                </mxCell>
                <mxCell id="32" value="Lemmatization" style="rounded=0;whiteSpace=wrap;html=1;fontSize=25;strokeWidth=2;" parent="1" vertex="1">
                    <mxGeometry x="799.9998717948719" y="971.8181818181818" width="185.45384615384614" height="92.72727272727273" as="geometry"/>
                </mxCell>
                <mxCell id="33" value="Tokenization" style="rounded=0;whiteSpace=wrap;html=1;fontSize=25;strokeWidth=2;" parent="1" vertex="1">
                    <mxGeometry x="1030.0016666666666" y="971.8181818181818" width="185.45384615384614" height="92.72727272727273" as="geometry"/>
                </mxCell>
                <mxCell id="38" value="Preprocessing Stage" style="text;html=1;align=center;verticalAlign=middle;whiteSpace=wrap;rounded=0;fontSize=25;strokeWidth=2;" parent="1" vertex="1">
                    <mxGeometry x="516.37" y="917.73" width="300" height="46.36" as="geometry"/>
                </mxCell>
            </root>
        </mxGraphModel>
    </diagram>
</mxfile>
